<svg xmlns="http://www.w3.org/2000/svg" viewBox="0 0 1200 900" width="1200" height="900">
  <!-- Background -->
  <rect width="1200" height="900" fill="#1a1a2e"/>
  
  <!-- Title -->
  <text x="600" y="35" text-anchor="middle" fill="#ffffff" font-family="Arial, sans-serif" font-size="22" font-weight="bold">Volume Profile Entry Scenarios</text>
  
  <!-- ============================================================ -->
  <!-- ROW 1: NORMAL PROFILE - LONG ENTRIES -->
  <!-- ============================================================ -->
  
  <text x="300" y="70" text-anchor="middle" fill="#00ff88" font-family="Arial, sans-serif" font-size="16" font-weight="bold">NORMAL PROFILE - LONG ENTRIES (Mean Reversion)</text>
  
  <!-- === SCENARIO 1: VAL Touch + Rejection === -->
  
  <text x="120" y="95" text-anchor="middle" fill="#ffffff" font-family="Arial, sans-serif" font-size="11" font-weight="bold">1. VAL Touch + Rejection</text>
  
  <!-- Profile shape -->
  <line x1="60" y1="110" x2="60" y2="290" stroke="#4a9eff" stroke-width="1.5"/>
  <line x1="180" y1="110" x2="180" y2="290" stroke="#4a9eff" stroke-width="1.5"/>
  <ellipse cx="120" cy="175" rx="60" ry="35" fill="#3d5a80" stroke="#4a9eff" stroke-width="2"/>
  
  <!-- VAH, POC, VAL lines -->
  <line x1="60" y1="140" x2="180" y2="140" stroke="#00ff88" stroke-width="1.5"/>
  <text x="185" y="143" fill="#00ff88" font-family="Arial, sans-serif" font-size="8">VAH</text>
  
  <line x1="60" y1="175" x2="180" y2="175" stroke="#ffcc00" stroke-width="1.5" stroke-dasharray="4,2"/>
  <text x="185" y="178" fill="#ffcc00" font-family="Arial, sans-serif" font-size="8">POC</text>
  
  <line x1="60" y1="210" x2="180" y2="210" stroke="#ff6b6b" stroke-width="1.5"/>
  <text x="185" y="213" fill="#ff6b6b" font-family="Arial, sans-serif" font-size="8">VAL</text>
  
  <!-- Price action arrow coming down to VAL -->
  <path d="M 100 130 L 100 160 L 90 180 L 100 205" stroke="#ffffff" stroke-width="2" fill="none"/>
  
  <!-- Entry zone at VAL -->
  <rect x="60" y="205" width="120" height="15" fill="#00ff88" fill-opacity="0.3" stroke="#00ff88" stroke-width="1"/>
  <text x="120" y="215" text-anchor="middle" fill="#00ff88" font-family="Arial, sans-serif" font-size="8" font-weight="bold">ENTRY ZONE</text>
  
  <!-- Stop loss below VAL -->
  <line x1="60" y1="235" x2="180" y2="235" stroke="#ff0000" stroke-width="1" stroke-dasharray="3,3"/>
  <text x="185" y="238" fill="#ff0000" font-family="Arial, sans-serif" font-size="8">STOP</text>
  
  <!-- Target at POC -->
  <circle cx="120" cy="175" r="8" fill="none" stroke="#00ff88" stroke-width="2"/>
  <text x="120" y="165" text-anchor="middle" fill="#00ff88" font-family="Arial, sans-serif" font-size="8">T1</text>
  
  <!-- Bounce arrow -->
  <path d="M 110 205 L 120 175" stroke="#00ff88" stroke-width="2" fill="none" marker-end="url(#arrowGreen)"/>
  
  <!-- Description -->
  <text x="120" y="260" text-anchor="middle" fill="#aaaaaa" font-family="Arial, sans-serif" font-size="8">First touch of VAL</text>
  <text x="120" y="272" text-anchor="middle" fill="#aaaaaa" font-family="Arial, sans-serif" font-size="8">Wait for rejection candle</text>
  <text x="120" y="284" text-anchor="middle" fill="#aaaaaa" font-family="Arial, sans-serif" font-size="8">Target: POC or VAH</text>
  
  
  <!-- === SCENARIO 2: POC Reclaim === -->
  
  <text x="320" y="95" text-anchor="middle" fill="#ffffff" font-family="Arial, sans-serif" font-size="11" font-weight="bold">2. POC Reclaim</text>
  
  <!-- Profile shape -->
  <line x1="260" y1="110" x2="260" y2="290" stroke="#4a9eff" stroke-width="1.5"/>
  <line x1="380" y1="110" x2="380" y2="290" stroke="#4a9eff" stroke-width="1.5"/>
  <ellipse cx="320" cy="175" rx="60" ry="35" fill="#3d5a80" stroke="#4a9eff" stroke-width="2"/>
  
  <!-- VAH, POC, VAL lines -->
  <line x1="260" y1="140" x2="380" y2="140" stroke="#00ff88" stroke-width="1.5"/>
  <text x="385" y="143" fill="#00ff88" font-family="Arial, sans-serif" font-size="8">VAH</text>
  
  <line x1="260" y1="175" x2="380" y2="175" stroke="#ffcc00" stroke-width="1.5" stroke-dasharray="4,2"/>
  <text x="385" y="178" fill="#ffcc00" font-family="Arial, sans-serif" font-size="8">POC</text>
  
  <line x1="260" y1="210" x2="380" y2="210" stroke="#ff6b6b" stroke-width="1.5"/>
  <text x="385" y="213" fill="#ff6b6b" font-family="Arial, sans-serif" font-size="8">VAL</text>
  
  <!-- Price action - dip below POC then reclaim -->
  <path d="M 290 150 L 295 175 L 300 195 L 310 190 L 315 175" stroke="#ffffff" stroke-width="2" fill="none"/>
  
  <!-- Entry zone at POC reclaim -->
  <rect x="260" y="168" width="120" height="14" fill="#00ff88" fill-opacity="0.3" stroke="#00ff88" stroke-width="1"/>
  <text x="320" y="178" text-anchor="middle" fill="#00ff88" font-family="Arial, sans-serif" font-size="8" font-weight="bold">ENTRY ON RECLAIM</text>
  
  <!-- Stop below VAL -->
  <line x1="260" y1="235" x2="380" y2="235" stroke="#ff0000" stroke-width="1" stroke-dasharray="3,3"/>
  <text x="385" y="238" fill="#ff0000" font-family="Arial, sans-serif" font-size="8">STOP</text>
  
  <!-- Target at VAH -->
  <circle cx="320" cy="140" r="8" fill="none" stroke="#00ff88" stroke-width="2"/>
  <text x="320" y="128" text-anchor="middle" fill="#00ff88" font-family="Arial, sans-serif" font-size="8">T1</text>
  
  <!-- Continuation arrow -->
  <path d="M 320 168 L 320 148" stroke="#00ff88" stroke-width="2" fill="none" marker-end="url(#arrowGreen)"/>
  
  <!-- Description -->
  <text x="320" y="260" text-anchor="middle" fill="#aaaaaa" font-family="Arial, sans-serif" font-size="8">Price dips below POC</text>
  <text x="320" y="272" text-anchor="middle" fill="#aaaaaa" font-family="Arial, sans-serif" font-size="8">Enter when price reclaims POC</text>
  <text x="320" y="284" text-anchor="middle" fill="#aaaaaa" font-family="Arial, sans-serif" font-size="8">Stop below VAL</text>
  
  
  <!-- === SCENARIO 3: Failed Breakdown (Bear Trap) === -->
  
  <text x="520" y="95" text-anchor="middle" fill="#ffffff" font-family="Arial, sans-serif" font-size="11" font-weight="bold">3. Failed Breakdown</text>
  
  <!-- Profile shape -->
  <line x1="460" y1="110" x2="460" y2="290" stroke="#4a9eff" stroke-width="1.5"/>
  <line x1="580" y1="110" x2="580" y2="290" stroke="#4a9eff" stroke-width="1.5"/>
  <ellipse cx="520" cy="175" rx="60" ry="35" fill="#3d5a80" stroke="#4a9eff" stroke-width="2"/>
  
  <!-- VAH, POC, VAL lines -->
  <line x1="460" y1="140" x2="580" y2="140" stroke="#00ff88" stroke-width="1.5"/>
  <text x="585" y="143" fill="#00ff88" font-family="Arial, sans-serif" font-size="8">VAH</text>
  
  <line x1="460" y1="175" x2="580" y2="175" stroke="#ffcc00" stroke-width="1.5" stroke-dasharray="4,2"/>
  <text x="585" y="178" fill="#ffcc00" font-family="Arial, sans-serif" font-size="8">POC</text>
  
  <line x1="460" y1="210" x2="580" y2="210" stroke="#ff6b6b" stroke-width="1.5"/>
  <text x="585" y="213" fill="#ff6b6b" font-family="Arial, sans-serif" font-size="8">VAL</text>
  
  <!-- Price action - break below VAL then reclaim -->
  <path d="M 490 175 L 495 195 L 500 220 L 510 235 L 520 230 L 525 210 L 530 195" stroke="#ffffff" stroke-width="2" fill="none"/>
  
  <!-- Trap zone -->
  <rect x="460" y="210" width="120" height="30" fill="#ff6b6b" fill-opacity="0.2"/>
  <text x="520" y="228" text-anchor="middle" fill="#ff6b6b" font-family="Arial, sans-serif" font-size="7">TRAP ZONE</text>
  
  <!-- Entry zone on reclaim of VAL -->
  <rect x="460" y="200" width="120" height="15" fill="#00ff88" fill-opacity="0.3" stroke="#00ff88" stroke-width="1"/>
  <text x="520" y="210" text-anchor="middle" fill="#00ff88" font-family="Arial, sans-serif" font-size="8" font-weight="bold">ENTRY ON RECLAIM</text>
  
  <!-- Stop below swing low -->
  <line x1="460" y1="250" x2="580" y2="250" stroke="#ff0000" stroke-width="1" stroke-dasharray="3,3"/>
  <text x="585" y="253" fill="#ff0000" font-family="Arial, sans-serif" font-size="8">STOP</text>
  
  <!-- Target -->
  <circle cx="520" cy="140" r="8" fill="none" stroke="#00ff88" stroke-width="2"/>
  <text x="520" y="128" text-anchor="middle" fill="#00ff88" font-family="Arial, sans-serif" font-size="8">T1</text>
  
  <path d="M 530 195 L 530 148" stroke="#00ff88" stroke-width="2" fill="none" marker-end="url(#arrowGreen)"/>
  
  <!-- Description -->
  <text x="520" y="265" text-anchor="middle" fill="#aaaaaa" font-family="Arial, sans-serif" font-size="8">Price breaks VAL (trap)</text>
  <text x="520" y="277" text-anchor="middle" fill="#aaaaaa" font-family="Arial, sans-serif" font-size="8">Quickly reverses back inside</text>
  <text x="520" y="289" text-anchor="middle" fill="#aaaaaa" font-family="Arial, sans-serif" font-size="8">Bears trapped = fuel for longs</text>
  
  
  <!-- ============================================================ -->
  <!-- ROW 2: NORMAL PROFILE - SHORT ENTRIES -->
  <!-- ============================================================ -->
  
  <text x="300" y="320" text-anchor="middle" fill="#ff6b6b" font-family="Arial, sans-serif" font-size="16" font-weight="bold">NORMAL PROFILE - SHORT ENTRIES (Mean Reversion)</text>
  
  <!-- === SCENARIO 4: VAH Touch + Rejection === -->
  
  <text x="120" y="345" text-anchor="middle" fill="#ffffff" font-family="Arial, sans-serif" font-size="11" font-weight="bold">4. VAH Touch + Rejection</text>
  
  <!-- Profile shape -->
  <line x1="60" y1="360" x2="60" y2="540" stroke="#4a9eff" stroke-width="1.5"/>
  <line x1="180" y1="360" x2="180" y2="540" stroke="#4a9eff" stroke-width="1.5"/>
  <ellipse cx="120" cy="425" rx="60" ry="35" fill="#3d5a80" stroke="#4a9eff" stroke-width="2"/>
  
  <!-- VAH, POC, VAL lines -->
  <line x1="60" y1="390" x2="180" y2="390" stroke="#00ff88" stroke-width="1.5"/>
  <text x="185" y="393" fill="#00ff88" font-family="Arial, sans-serif" font-size="8">VAH</text>
  
  <line x1="60" y1="425" x2="180" y2="425" stroke="#ffcc00" stroke-width="1.5" stroke-dasharray="4,2"/>
  <text x="185" y="428" fill="#ffcc00" font-family="Arial, sans-serif" font-size="8">POC</text>
  
  <line x1="60" y1="460" x2="180" y2="460" stroke="#ff6b6b" stroke-width="1.5"/>
  <text x="185" y="463" fill="#ff6b6b" font-family="Arial, sans-serif" font-size="8">VAL</text>
  
  <!-- Price action coming up to VAH -->
  <path d="M 100 470 L 100 440 L 95 410 L 105 395" stroke="#ffffff" stroke-width="2" fill="none"/>
  
  <!-- Entry zone at VAH -->
  <rect x="60" y="380" width="120" height="15" fill="#ff6b6b" fill-opacity="0.3" stroke="#ff6b6b" stroke-width="1"/>
  <text x="120" y="390" text-anchor="middle" fill="#ff6b6b" font-family="Arial, sans-serif" font-size="8" font-weight="bold">ENTRY ZONE</text>
  
  <!-- Stop above VAH -->
  <line x1="60" y1="365" x2="180" y2="365" stroke="#ff0000" stroke-width="1" stroke-dasharray="3,3"/>
  <text x="185" y="368" fill="#ff0000" font-family="Arial, sans-serif" font-size="8">STOP</text>
  
  <!-- Target at POC -->
  <circle cx="120" cy="425" r="8" fill="none" stroke="#ff6b6b" stroke-width="2"/>
  <text x="120" y="438" text-anchor="middle" fill="#ff6b6b" font-family="Arial, sans-serif" font-size="8">T1</text>
  
  <!-- Drop arrow -->
  <path d="M 115 395 L 120 425" stroke="#ff6b6b" stroke-width="2" fill="none" marker-end="url(#arrowRed)"/>
  
  <!-- Description -->
  <text x="120" y="510" text-anchor="middle" fill="#aaaaaa" font-family="Arial, sans-serif" font-size="8">First touch of VAH</text>
  <text x="120" y="522" text-anchor="middle" fill="#aaaaaa" font-family="Arial, sans-serif" font-size="8">Wait for rejection candle</text>
  <text x="120" y="534" text-anchor="middle" fill="#aaaaaa" font-family="Arial, sans-serif" font-size="8">Target: POC or VAL</text>
  
  
  <!-- === SCENARIO 5: POC Rejection === -->
  
  <text x="320" y="345" text-anchor="middle" fill="#ffffff" font-family="Arial, sans-serif" font-size="11" font-weight="bold">5. POC Rejection</text>
  
  <!-- Profile shape -->
  <line x1="260" y1="360" x2="260" y2="540" stroke="#4a9eff" stroke-width="1.5"/>
  <line x1="380" y1="360" x2="380" y2="540" stroke="#4a9eff" stroke-width="1.5"/>
  <ellipse cx="320" cy="425" rx="60" ry="35" fill="#3d5a80" stroke="#4a9eff" stroke-width="2"/>
  
  <!-- VAH, POC, VAL lines -->
  <line x1="260" y1="390" x2="380" y2="390" stroke="#00ff88" stroke-width="1.5"/>
  <text x="385" y="393" fill="#00ff88" font-family="Arial, sans-serif" font-size="8">VAH</text>
  
  <line x1="260" y1="425" x2="380" y2="425" stroke="#ffcc00" stroke-width="1.5" stroke-dasharray="4,2"/>
  <text x="385" y="428" fill="#ffcc00" font-family="Arial, sans-serif" font-size="8">POC</text>
  
  <line x1="260" y1="460" x2="380" y2="460" stroke="#ff6b6b" stroke-width="1.5"/>
  <text x="385" y="463" fill="#ff6b6b" font-family="Arial, sans-serif" font-size="8">VAL</text>
  
  <!-- Price action - rally to POC, fail -->
  <path d="M 290 480 L 295 455 L 305 430 L 315 420 L 320 430" stroke="#ffffff" stroke-width="2" fill="none"/>
  
  <!-- Entry zone at POC rejection -->
  <rect x="260" y="418" width="120" height="14" fill="#ff6b6b" fill-opacity="0.3" stroke="#ff6b6b" stroke-width="1"/>
  <text x="320" y="428" text-anchor="middle" fill="#ff6b6b" font-family="Arial, sans-serif" font-size="8" font-weight="bold">ENTRY ON REJECT</text>
  
  <!-- Stop above VAH -->
  <line x1="260" y1="375" x2="380" y2="375" stroke="#ff0000" stroke-width="1" stroke-dasharray="3,3"/>
  <text x="385" y="378" fill="#ff0000" font-family="Arial, sans-serif" font-size="8">STOP</text>
  
  <!-- Target at VAL -->
  <circle cx="320" cy="460" r="8" fill="none" stroke="#ff6b6b" stroke-width="2"/>
  <text x="320" y="475" text-anchor="middle" fill="#ff6b6b" font-family="Arial, sans-serif" font-size="8">T1</text>
  
  <!-- Drop arrow -->
  <path d="M 325 432 L 325 452" stroke="#ff6b6b" stroke-width="2" fill="none" marker-end="url(#arrowRed)"/>
  
  <!-- Description -->
  <text x="320" y="510" text-anchor="middle" fill="#aaaaaa" font-family="Arial, sans-serif" font-size="8">Price rallies to POC from below</text>
  <text x="320" y="522" text-anchor="middle" fill="#aaaaaa" font-family="Arial, sans-serif" font-size="8">Fails to hold above</text>
  <text x="320" y="534" text-anchor="middle" fill="#aaaaaa" font-family="Arial, sans-serif" font-size="8">Short on rejection</text>
  
  
  <!-- === SCENARIO 6: Failed Breakout (Bull Trap) === -->
  
  <text x="520" y="345" text-anchor="middle" fill="#ffffff" font-family="Arial, sans-serif" font-size="11" font-weight="bold">6. Failed Breakout (Bull Trap)</text>
  
  <!-- Profile shape -->
  <line x1="460" y1="360" x2="460" y2="540" stroke="#4a9eff" stroke-width="1.5"/>
  <line x1="580" y1="360" x2="580" y2="540" stroke="#4a9eff" stroke-width="1.5"/>
  <ellipse cx="520" cy="425" rx="60" ry="35" fill="#3d5a80" stroke="#4a9eff" stroke-width="2"/>
  
  <!-- VAH, POC, VAL lines -->
  <line x1="460" y1="390" x2="580" y2="390" stroke="#00ff88" stroke-width="1.5"/>
  <text x="585" y="393" fill="#00ff88" font-family="Arial, sans-serif" font-size="8">VAH</text>
  
  <line x1="460" y1="425" x2="580" y2="425" stroke="#ffcc00" stroke-width="1.5" stroke-dasharray="4,2"/>
  <text x="585" y="428" fill="#ffcc00" font-family="Arial, sans-serif" font-size="8">POC</text>
  
  <line x1="460" y1="460" x2="580" y2="460" stroke="#ff6b6b" stroke-width="1.5"/>
  <text x="585" y="463" fill="#ff6b6b" font-family="Arial, sans-serif" font-size="8">VAL</text>
  
  <!-- Price action - break above VAH then fail -->
  <path d="M 490 440 L 495 410 L 505 380 L 515 365 L 525 370 L 530 390 L 535 410" stroke="#ffffff" stroke-width="2" fill="none"/>
  
  <!-- Trap zone -->
  <rect x="460" y="360" width="120" height="30" fill="#00ff88" fill-opacity="0.2"/>
  <text x="520" y="378" text-anchor="middle" fill="#00ff88" font-family="Arial, sans-serif" font-size="7">TRAP ZONE</text>
  
  <!-- Entry zone on break back below VAH -->
  <rect x="460" y="385" width="120" height="15" fill="#ff6b6b" fill-opacity="0.3" stroke="#ff6b6b" stroke-width="1"/>
  <text x="520" y="395" text-anchor="middle" fill="#ff6b6b" font-family="Arial, sans-serif" font-size="8" font-weight="bold">ENTRY ON FAIL</text>
  
  <!-- Stop above swing high -->
  <line x1="460" y1="355" x2="580" y2="355" stroke="#ff0000" stroke-width="1" stroke-dasharray="3,3"/>
  <text x="585" y="358" fill="#ff0000" font-family="Arial, sans-serif" font-size="8">STOP</text>
  
  <!-- Target -->
  <circle cx="520" cy="460" r="8" fill="none" stroke="#ff6b6b" stroke-width="2"/>
  <text x="520" y="475" text-anchor="middle" fill="#ff6b6b" font-family="Arial, sans-serif" font-size="8">T1</text>
  
  <path d="M 540 410 L 540 452" stroke="#ff6b6b" stroke-width="2" fill="none" marker-end="url(#arrowRed)"/>
  
  <!-- Description -->
  <text x="520" y="510" text-anchor="middle" fill="#aaaaaa" font-family="Arial, sans-serif" font-size="8">Price breaks VAH (trap)</text>
  <text x="520" y="522" text-anchor="middle" fill="#aaaaaa" font-family="Arial, sans-serif" font-size="8">Quickly reverses back inside</text>
  <text x="520" y="534" text-anchor="middle" fill="#aaaaaa" font-family="Arial, sans-serif" font-size="8">Bulls trapped = fuel for shorts</text>
  
  
  <!-- ============================================================ -->
  <!-- ROW 3: INVERTED PROFILE - BREAKOUT ENTRIES -->
  <!-- ============================================================ -->
  
  <text x="900" y="70" text-anchor="middle" fill="#ff9966" font-family="Arial, sans-serif" font-size="16" font-weight="bold">INVERTED PROFILE - BREAKOUT ENTRIES</text>
  
  <!-- === SCENARIO 7: Breakout + Retest (Long) === -->
  
  <text x="750" y="95" text-anchor="middle" fill="#ffffff" font-family="Arial, sans-serif" font-size="11" font-weight="bold">7. Breakout + Retest (Long)</text>
  
  <!-- Inverted Profile shape -->
  <line x1="690" y1="110" x2="690" y2="290" stroke="#4a9eff" stroke-width="1.5"/>
  <line x1="810" y1="110" x2="810" y2="290" stroke="#4a9eff" stroke-width="1.5"/>
  <ellipse cx="750" cy="135" rx="45" ry="20" fill="#5a3d3d" stroke="#ff6b6b" stroke-width="2"/>
  <ellipse cx="750" cy="215" rx="45" ry="20" fill="#5a3d3d" stroke="#ff6b6b" stroke-width="2"/>
  <rect x="725" y="135" width="50" height="80" fill="#5a3d3d"/>
  <line x1="725" y1="135" x2="725" y2="215" stroke="#ff6b6b" stroke-width="2"/>
  <line x1="775" y1="135" x2="775" y2="215" stroke="#ff6b6b" stroke-width="2"/>
  
  <!-- VAH line -->
  <line x1="690" y1="140" x2="810" y2="140" stroke="#00ff88" stroke-width="1.5"/>
  <text x="815" y="143" fill="#00ff88" font-family="Arial, sans-serif" font-size="8">VAH</text>
  
  <!-- POC line -->
  <line x1="690" y1="175" x2="810" y2="175" stroke="#ffcc00" stroke-width="1.5" stroke-dasharray="4,2"/>
  <text x="815" y="178" fill="#ffcc00" font-family="Arial, sans-serif" font-size="8">POC (LVN)</text>
  
  <!-- VAL line -->
  <line x1="690" y1="210" x2="810" y2="210" stroke="#ff6b6b" stroke-width="1.5"/>
  <text x="815" y="213" fill="#ff6b6b" font-family="Arial, sans-serif" font-size="8">VAL</text>
  
  <!-- Price action - break above VAH, retest, continue -->
  <path d="M 720 190 L 725 170 L 730 150 L 740 125 L 750 115 L 755 125 L 760 140 L 765 130" stroke="#ffffff" stroke-width="2" fill="none"/>
  
  <!-- Entry zone on retest of VAH -->
  <rect x="690" y="135" width="120" height="15" fill="#00ff88" fill-opacity="0.3" stroke="#00ff88" stroke-width="1"/>
  <text x="750" y="145" text-anchor="middle" fill="#00ff88" font-family="Arial, sans-serif" font-size="8" font-weight="bold">ENTRY ON RETEST</text>
  
  <!-- Stop below VAH -->
  <line x1="690" y1="160" x2="810" y2="160" stroke="#ff0000" stroke-width="1" stroke-dasharray="3,3"/>
  <text x="815" y="163" fill="#ff0000" font-family="Arial, sans-serif" font-size="8">STOP</text>
  
  <!-- Target 1x extension -->
  <line x1="690" y1="110" x2="810" y2="110" stroke="#66ccff" stroke-width="1"/>
  <circle cx="750" cy="110" r="8" fill="none" stroke="#00ff88" stroke-width="2"/>
  <text x="750" y="100" text-anchor="middle" fill="#00ff88" font-family="Arial, sans-serif" font-size="8">T1 (+1x)</text>
  
  <path d="M 770 130 L 755 115" stroke="#00ff88" stroke-width="2" fill="none" marker-end="url(#arrowGreen)"/>
  
  <!-- Description -->
  <text x="750" y="260" text-anchor="middle" fill="#aaaaaa" font-family="Arial, sans-serif" font-size="8">Wait for clean break of VAH</text>
  <text x="750" y="272" text-anchor="middle" fill="#aaaaaa" font-family="Arial, sans-serif" font-size="8">Enter on retest of broken level</text>
  <text x="750" y="284" text-anchor="middle" fill="#aaaaaa" font-family="Arial, sans-serif" font-size="8">Target: 1x extension</text>
  
  
  <!-- === SCENARIO 8: Breakout + Retest (Short) === -->
  
  <text x="950" y="95" text-anchor="middle" fill="#ffffff" font-family="Arial, sans-serif" font-size="11" font-weight="bold">8. Breakout + Retest (Short)</text>
  
  <!-- Inverted Profile shape -->
  <line x1="890" y1="110" x2="890" y2="290" stroke="#4a9eff" stroke-width="1.5"/>
  <line x1="1010" y1="110" x2="1010" y2="290" stroke="#4a9eff" stroke-width="1.5"/>
  <ellipse cx="950" cy="135" rx="45" ry="20" fill="#5a3d3d" stroke="#ff6b6b" stroke-width="2"/>
  <ellipse cx="950" cy="215" rx="45" ry="20" fill="#5a3d3d" stroke="#ff6b6b" stroke-width="2"/>
  <rect x="925" y="135" width="50" height="80" fill="#5a3d3d"/>
  <line x1="925" y1="135" x2="925" y2="215" stroke="#ff6b6b" stroke-width="2"/>
  <line x1="975" y1="135" x2="975" y2="215" stroke="#ff6b6b" stroke-width="2"/>
  
  <!-- Lines -->
  <line x1="890" y1="140" x2="1010" y2="140" stroke="#00ff88" stroke-width="1.5"/>
  <text x="1015" y="143" fill="#00ff88" font-family="Arial, sans-serif" font-size="8">VAH</text>
  
  <line x1="890" y1="175" x2="1010" y2="175" stroke="#ffcc00" stroke-width="1.5" stroke-dasharray="4,2"/>
  <text x="1015" y="178" fill="#ffcc00" font-family="Arial, sans-serif" font-size="8">POC (LVN)</text>
  
  <line x1="890" y1="210" x2="1010" y2="210" stroke="#ff6b6b" stroke-width="1.5"/>
  <text x="1015" y="213" fill="#ff6b6b" font-family="Arial, sans-serif" font-size="8">VAL</text>
  
  <!-- Price action - break below VAL, retest, continue down -->
  <path d="M 920 165 L 925 185 L 935 210 L 945 235 L 955 245 L 960 235 L 965 215 L 970 225" stroke="#ffffff" stroke-width="2" fill="none"/>
  
  <!-- Entry zone on retest of VAL -->
  <rect x="890" y="205" width="120" height="15" fill="#ff6b6b" fill-opacity="0.3" stroke="#ff6b6b" stroke-width="1"/>
  <text x="950" y="215" text-anchor="middle" fill="#ff6b6b" font-family="Arial, sans-serif" font-size="8" font-weight="bold">ENTRY ON RETEST</text>
  
  <!-- Stop above VAL -->
  <line x1="890" y1="190" x2="1010" y2="190" stroke="#ff0000" stroke-width="1" stroke-dasharray="3,3"/>
  <text x="1015" y="193" fill="#ff0000" font-family="Arial, sans-serif" font-size="8">STOP</text>
  
  <!-- Target 1x extension -->
  <line x1="890" y1="280" x2="1010" y2="280" stroke="#ff9966" stroke-width="1"/>
  <circle cx="950" cy="280" r="8" fill="none" stroke="#ff6b6b" stroke-width="2"/>
  <text x="950" y="293" text-anchor="middle" fill="#ff6b6b" font-family="Arial, sans-serif" font-size="8">T1 (+1x)</text>
  
  <path d="M 975 225 L 960 260" stroke="#ff6b6b" stroke-width="2" fill="none" marker-end="url(#arrowRed)"/>
  
  <!-- Description -->
  <text x="950" y="260" text-anchor="middle" fill="#aaaaaa" font-family="Arial, sans-serif" font-size="8">Wait for clean break of VAL</text>
  <text x="950" y="272" text-anchor="middle" fill="#aaaaaa" font-family="Arial, sans-serif" font-size="8">Enter on retest of broken level</text>
  
  
  <!-- === SCENARIO 9: LVN Speed Zone === -->
  
  <text x="750" y="345" text-anchor="middle" fill="#ffffff" font-family="Arial, sans-serif" font-size="11" font-weight="bold">9. LVN Speed Zone Entry</text>
  
  <!-- Inverted Profile shape -->
  <line x1="690" y1="360" x2="690" y2="540" stroke="#4a9eff" stroke-width="1.5"/>
  <line x1="810" y1="360" x2="810" y2="540" stroke="#4a9eff" stroke-width="1.5"/>
  <ellipse cx="750" cy="385" rx="45" ry="20" fill="#5a3d3d" stroke="#ff6b6b" stroke-width="2"/>
  <ellipse cx="750" cy="465" rx="45" ry="20" fill="#5a3d3d" stroke="#ff6b6b" stroke-width="2"/>
  <rect x="725" y="385" width="50" height="80" fill="#5a3d3d"/>
  <line x1="725" y1="385" x2="725" y2="465" stroke="#ff6b6b" stroke-width="2"/>
  <line x1="775" y1="385" x2="775" y2="465" stroke="#ff6b6b" stroke-width="2"/>
  
  <!-- LVN Zone highlight -->
  <rect x="690" y="410" width="120" height="30" fill="#ffcc00" fill-opacity="0.15"/>
  <text x="820" y="428" fill="#ffcc00" font-family="Arial, sans-serif" font-size="8">LVN ZONE</text>
  <text x="820" y="438" fill="#ffcc00" font-family="Arial, sans-serif" font-size="7">(Speed Zone)</text>
  
  <!-- Lines -->
  <line x1="690" y1="390" x2="810" y2="390" stroke="#00ff88" stroke-width="1.5"/>
  <text x="815" y="393" fill="#00ff88" font-family="Arial, sans-serif" font-size="8">VAH</text>
  
  <line x1="690" y1="425" x2="810" y2="425" stroke="#ffcc00" stroke-width="1.5" stroke-dasharray="4,2"/>
  <text x="815" y="420" fill="#ffcc00" font-family="Arial, sans-serif" font-size="8">POC</text>
  
  <line x1="690" y1="460" x2="810" y2="460" stroke="#ff6b6b" stroke-width="1.5"/>
  <text x="815" y="463" fill="#ff6b6b" font-family="Arial, sans-serif" font-size="8">VAL</text>
  
  <!-- Price action entering LVN from bottom, rejected back down -->
  <path d="M 720 480 L 725 460 L 735 435 L 740 425 L 745 435 L 750 455" stroke="#ffffff" stroke-width="2" fill="none"/>
  
  <!-- Entry zone on LVN rejection -->
  <rect x="690" y="430" width="120" height="15" fill="#ff6b6b" fill-opacity="0.3" stroke="#ff6b6b" stroke-width="1"/>
  <text x="750" y="440" text-anchor="middle" fill="#ff6b6b" font-family="Arial, sans-serif" font-size="8" font-weight="bold">SHORT ON REJECT</text>
  
  <!-- Stop above -->
  <line x1="690" y1="400" x2="810" y2="400" stroke="#ff0000" stroke-width="1" stroke-dasharray="3,3"/>
  <text x="815" y="403" fill="#ff0000" font-family="Arial, sans-serif" font-size="8">STOP</text>
  
  <!-- Target -->
  <circle cx="750" cy="490" r="8" fill="none" stroke="#ff6b6b" stroke-width="2"/>
  <text x="750" y="503" text-anchor="middle" fill="#ff6b6b" font-family="Arial, sans-serif" font-size="8">T1</text>
  
  <path d="M 755 455 L 755 482" stroke="#ff6b6b" stroke-width="2" fill="none" marker-end="url(#arrowRed)"/>
  
  <!-- Description -->
  <text x="750" y="515" text-anchor="middle" fill="#aaaaaa" font-family="Arial, sans-serif" font-size="8">LVN = Low Volume Node</text>
  <text x="750" y="527" text-anchor="middle" fill="#aaaaaa" font-family="Arial, sans-serif" font-size="8">Price moves FAST through here</text>
  <text x="750" y="539" text-anchor="middle" fill="#aaaaaa" font-family="Arial, sans-serif" font-size="8">Trade rejection back to HVN</text>
  
  
  <!-- === SCENARIO 10: Volume Confirmation Break === -->
  
  <text x="950" y="345" text-anchor="middle" fill="#ffffff" font-family="Arial, sans-serif" font-size="11" font-weight="bold">10. Volume Confirmation Break</text>
  
  <!-- Inverted Profile shape -->
  <line x1="890" y1="360" x2="890" y2="540" stroke="#4a9eff" stroke-width="1.5"/>
  <line x1="1010" y1="360" x2="1010" y2="540" stroke="#4a9eff" stroke-width="1.5"/>
  <ellipse cx="950" cy="385" rx="45" ry="20" fill="#5a3d3d" stroke="#ff6b6b" stroke-width="2"/>
  <ellipse cx="950" cy="465" rx="45" ry="20" fill="#5a3d3d" stroke="#ff6b6b" stroke-width="2"/>
  <rect x="925" y="385" width="50" height="80" fill="#5a3d3d"/>
  <line x1="925" y1="385" x2="925" y2="465" stroke="#ff6b6b" stroke-width="2"/>
  <line x1="975" y1="385" x2="975" y2="465" stroke="#ff6b6b" stroke-width="2"/>
  
  <!-- Lines -->
  <line x1="890" y1="390" x2="1010" y2="390" stroke="#00ff88" stroke-width="1.5"/>
  <text x="1015" y="393" fill="#00ff88" font-family="Arial, sans-serif" font-size="8">VAH</text>
  
  <line x1="890" y1="425" x2="1010" y2="425" stroke="#ffcc00" stroke-width="1.5" stroke-dasharray="4,2"/>
  <text x="1015" y="428" fill="#ffcc00" font-family="Arial, sans-serif" font-size="8">POC</text>
  
  <line x1="890" y1="460" x2="1010" y2="460" stroke="#ff6b6b" stroke-width="1.5"/>
  <text x="1015" y="463" fill="#ff6b6b" font-family="Arial, sans-serif" font-size="8">VAL</text>
  
  <!-- Price action - strong move with volume bars -->
  <path d="M 920 450 L 925 430 L 935 400 L 945 375 L 960 355" stroke="#ffffff" stroke-width="2.5" fill="none"/>
  
  <!-- Volume bars showing increasing volume -->
  <rect x="1030" y="480" width="8" height="20" fill="#4a9eff" opacity="0.5"/>
  <rect x="1040" y="470" width="8" height="30" fill="#4a9eff" opacity="0.6"/>
  <rect x="1050" y="455" width="8" height="45" fill="#4a9eff" opacity="0.7"/>
  <rect x="1060" y="430" width="8" height="70" fill="#00ff88" opacity="0.9"/>
  <rect x="1070" y="400" width="8" height="100" fill="#00ff88"/>
  <text x="1055" y="520" text-anchor="middle" fill="#aaaaaa" font-family="Arial, sans-serif" font-size="7">VOLUME</text>
  
  <!-- Entry on volume surge -->
  <rect x="890" y="375" width="120" height="15" fill="#00ff88" fill-opacity="0.3" stroke="#00ff88" stroke-width="1"/>
  <text x="950" y="385" text-anchor="middle" fill="#00ff88" font-family="Arial, sans-serif" font-size="7" font-weight="bold">ENTRY W/ VOLUME</text>
  
  <!-- Stop -->
  <line x1="890" y1="410" x2="1010" y2="410" stroke="#ff0000" stroke-width="1" stroke-dasharray="3,3"/>
  <text x="1015" y="413" fill="#ff0000" font-family="Arial, sans-serif" font-size="8">STOP</text>
  
  <!-- Target -->
  <line x1="890" y1="355" x2="1010" y2="355" stroke="#66ccff" stroke-width="1"/>
  <circle cx="950" cy="355" r="8" fill="none" stroke="#00ff88" stroke-width="2"/>
  <text x="950" y="348" text-anchor="middle" fill="#00ff88" font-family="Arial, sans-serif" font-size="8">T1</text>
  
  <!-- Description -->
  <text x="950" y="515" text-anchor="middle" fill="#aaaaaa" font-family="Arial, sans-serif" font-size="8">Breakout with 2x+ avg volume</text>
  <text x="950" y="527" text-anchor="middle" fill="#aaaaaa" font-family="Arial, sans-serif" font-size="8">Confirms conviction</text>
  <text x="950" y="539" text-anchor="middle" fill="#aaaaaa" font-family="Arial, sans-serif" font-size="8">No retest needed</text>
  
  
  <!-- ============================================================ -->
  <!-- PROBABILITY GUIDE -->
  <!-- ============================================================ -->
  
  <rect x="650" y="570" width="500" height="120" fill="#252540" stroke="#444444" rx="5"/>
  
  <text x="900" y="590" text-anchor="middle" fill="#ffffff" font-family="Arial, sans-serif" font-size="12" font-weight="bold">PROBABILITY ADJUSTMENTS</text>
  
  <text x="670" y="615" fill="#00ff88" font-family="Arial, sans-serif" font-size="10">Higher Probability (+):</text>
  <text x="670" y="630" fill="#aaaaaa" font-family="Arial, sans-serif" font-size="9">• VWAP confluence at entry level</text>
  <text x="670" y="645" fill="#aaaaaa" font-family="Arial, sans-serif" font-size="9">• RSI oversold/overbought confirmation</text>
  <text x="670" y="660" fill="#aaaaaa" font-family="Arial, sans-serif" font-size="9">• Higher timeframe alignment</text>
  <text x="670" y="675" fill="#aaaaaa" font-family="Arial, sans-serif" font-size="9">• First test of level (virgin)</text>
  
  <text x="900" y="615" fill="#ff6b6b" font-family="Arial, sans-serif" font-size="10">Lower Probability (-):</text>
  <text x="900" y="630" fill="#aaaaaa" font-family="Arial, sans-serif" font-size="9">• Multiple tests of level already</text>
  <text x="900" y="645" fill="#aaaaaa" font-family="Arial, sans-serif" font-size="9">• Counter to HTF trend</text>
  <text x="900" y="660" fill="#aaaaaa" font-family="Arial, sans-serif" font-size="9">• Low volume / chop conditions</text>
  <text x="900" y="675" fill="#aaaaaa" font-family="Arial, sans-serif" font-size="9">• News event pending</text>
  
  
  <!-- ============================================================ -->
  <!-- LEGEND -->
  <!-- ============================================================ -->
  
  <rect x="50" y="570" width="550" height="120" fill="#252540" stroke="#444444" rx="5"/>
  
  <text x="325" y="590" text-anchor="middle" fill="#ffffff" font-family="Arial, sans-serif" font-size="12" font-weight="bold">LEGEND</text>
  
  <rect x="70" y="605" width="15" height="10" fill="#00ff88" fill-opacity="0.3" stroke="#00ff88"/>
  <text x="90" y="614" fill="#ffffff" font-family="Arial, sans-serif" font-size="9">Long Entry Zone</text>
  
  <rect x="70" y="625" width="15" height="10" fill="#ff6b6b" fill-opacity="0.3" stroke="#ff6b6b"/>
  <text x="90" y="634" fill="#ffffff" font-family="Arial, sans-serif" font-size="9">Short Entry Zone</text>
  
  <line x1="70" y1="650" x2="85" y2="650" stroke="#ff0000" stroke-width="2" stroke-dasharray="3,3"/>
  <text x="90" y="654" fill="#ffffff" font-family="Arial, sans-serif" font-size="9">Stop Loss</text>
  
  <circle cx="77" cy="670" r="6" fill="none" stroke="#00ff88" stroke-width="2"/>
  <text x="90" y="674" fill="#ffffff" font-family="Arial, sans-serif" font-size="9">Target</text>
  
  <rect x="220" y="605" width="15" height="10" fill="#3d5a80" stroke="#4a9eff"/>
  <text x="240" y="614" fill="#ffffff" font-family="Arial, sans-serif" font-size="9">Normal Profile (Mean Reversion)</text>
  
  <rect x="220" y="625" width="15" height="10" fill="#5a3d3d" stroke="#ff6b6b"/>
  <text x="240" y="634" fill="#ffffff" font-family="Arial, sans-serif" font-size="9">Inverted Profile (Breakout)</text>
  
  <rect x="220" y="645" width="15" height="10" fill="#ffcc00" fill-opacity="0.2"/>
  <text x="240" y="654" fill="#ffffff" font-family="Arial, sans-serif" font-size="9">LVN (Low Volume Node) - Speed Zone</text>
  
  <path d="M 220 670 L 235 670" stroke="#ffffff" stroke-width="2"/>
  <text x="240" y="674" fill="#ffffff" font-family="Arial, sans-serif" font-size="9">Price Action</text>
  
  <!-- Key principle -->
  <text x="470" y="615" fill="#ffcc00" font-family="Arial, sans-serif" font-size="10" font-weight="bold">KEY PRINCIPLE:</text>
  <text x="470" y="635" fill="#aaaaaa" font-family="Arial, sans-serif" font-size="9">Normal = Fade the edges</text>
  <text x="470" y="650" fill="#aaaaaa" font-family="Arial, sans-serif" font-size="9">Inverted = Trade the break</text>
  <text x="470" y="675" fill="#ffffff" font-family="Arial, sans-serif" font-size="9" font-style="italic">Always wait for confirmation!</text>
  
  
  <!-- Arrow markers -->
  <defs>
    <marker id="arrowGreen" markerWidth="10" markerHeight="7" refX="9" refY="3.5" orient="auto">
      <polygon points="0 0, 10 3.5, 0 7" fill="#00ff88"/>
    </marker>
    <marker id="arrowRed" markerWidth="10" markerHeight="7" refX="9" refY="3.5" orient="auto">
      <polygon points="0 0, 10 3.5, 0 7" fill="#ff6b6b"/>
    </marker>
  </defs>
  
</svg>